<?xml version="1.0" encoding="utf-8"?><svg xmlns="http://www.w3.org/2000/svg" xmlns:xlink="http://www.w3.org/1999/xlink"><symbol viewBox="0 0 24 24" id="fb" xmlns="http://www.w3.org/2000/svg"><path d="M22.676 0H1.324C.593 0 0 .593 0 1.324v21.352C0 23.408.593 24 1.324 24h11.494v-9.294H9.689v-3.621h3.129V8.41c0-3.099 1.894-4.785 4.659-4.785 1.325 0 2.464.097 2.796.141v3.24h-1.921c-1.5 0-1.792.721-1.792 1.771v2.311h3.584l-.465 3.63H16.56V24h6.115c.733 0 1.325-.592 1.325-1.324V1.324C24 .593 23.408 0 22.676 0"/></symbol><symbol viewBox="0 0 24 24" id="li" xmlns="http://www.w3.org/2000/svg"><path d="M20.447 20.452h-3.554v-5.569c0-1.328-.027-3.037-1.852-3.037-1.853 0-2.136 1.445-2.136 2.939v5.667H9.351V9h3.414v1.561h.046c.477-.9 1.637-1.85 3.37-1.85 3.601 0 4.267 2.37 4.267 5.455v6.286zM5.337 7.433a2.062 2.062 0 0 1-2.063-2.065 2.064 2.064 0 1 1 2.063 2.065zm1.782 13.019H3.555V9h3.564v11.452zM22.225 0H1.771C.792 0 0 .774 0 1.729v20.542C0 23.227.792 24 1.771 24h20.451C23.2 24 24 23.227 24 22.271V1.729C24 .774 23.2 0 22.222 0h.003z"/></symbol><symbol viewBox="0 0 24 24" id="paypal" xmlns="http://www.w3.org/2000/svg"><path d="M6.908 24H3.804c-.664 0-1.086-.529-.936-1.18l.149-.674h2.071c.666 0 1.336-.533 1.482-1.182l1.064-4.592c.15-.648.816-1.18 1.48-1.18h.883c3.789 0 6.734-.779 8.84-2.34s3.16-3.6 3.16-6.135c0-1.125-.195-2.055-.588-2.789 0-.016-.016-.031-.016-.046l.135.075c.75.465 1.32 1.064 1.711 1.814.404.75.598 1.68.598 2.791 0 2.535-1.049 4.574-3.164 6.135-2.1 1.545-5.055 2.324-8.834 2.324h-.9c-.66 0-1.334.525-1.484 1.186L8.39 22.812c-.149.645-.81 1.17-1.47 1.17L6.908 24zm-2.677-2.695H1.126c-.663 0-1.084-.529-.936-1.18L4.563 1.182C4.714.529 5.378 0 6.044 0h6.465c1.395 0 2.609.098 3.648.289 1.035.189 1.92.519 2.684.99.736.465 1.322 1.072 1.697 1.818.389.748.584 1.68.584 2.797 0 2.535-1.051 4.574-3.164 6.119-2.1 1.561-5.056 2.326-8.836 2.326h-.883c-.66 0-1.328.524-1.478 1.169L5.7 20.097c-.149.646-.817 1.172-1.485 1.172l.016.036zm7.446-17.369h-1.014c-.666 0-1.332.529-1.48 1.178l-.93 4.02c-.15.648.27 1.179.93 1.179h.766c1.664 0 2.97-.343 3.9-1.021.929-.686 1.395-1.654 1.395-2.912 0-.83-.301-1.445-.9-1.84-.6-.404-1.5-.605-2.686-.605l.019.001z"/></symbol><symbol viewBox="0 0 24 24" id="tw" xmlns="http://www.w3.org/2000/svg"><path d="M23.954 4.569a10 10 0 0 1-2.825.775 4.958 4.958 0 0 0 2.163-2.723c-.951.555-2.005.959-3.127 1.184a4.92 4.92 0 0 0-8.384 4.482C7.691 8.094 4.066 6.13 1.64 3.161a4.822 4.822 0 0 0-.666 2.475c0 1.71.87 3.213 2.188 4.096a4.904 4.904 0 0 1-2.228-.616v.061a4.923 4.923 0 0 0 3.946 4.827 4.996 4.996 0 0 1-2.212.085 4.937 4.937 0 0 0 4.604 3.417 9.868 9.868 0 0 1-6.102 2.105c-.39 0-.779-.023-1.17-.067a13.995 13.995 0 0 0 7.557 2.209c9.054 0 13.999-7.496 13.999-13.986 0-.209 0-.42-.015-.63a9.936 9.936 0 0 0 2.46-2.548l-.047-.02z"/></symbol></svg>